<?xml version="1.0" encoding="utf-8"?>
<!-- Generator: Adobe Illustrator 27.1.1, SVG Export Plug-In . SVG Version: 6.00 Build 0)  -->
<svg version="1.1" id="Logo" xmlns="http://www.w3.org/2000/svg" xmlns:xlink="http://www.w3.org/1999/xlink" x="0px" y="0px"
	 viewBox="0 0 207.68 207.68" style="enable-background:new 0 0 207.68 207.68;" xml:space="preserve">
<style type="text/css">
	.st0{fill:#FFFFFF;}
	.st1{fill:#FFFF00;}
</style>
<g>
	<g>
		<g>
			<path class="st0" d="M16.23,103.84c0-48.31,39.3-87.61,87.61-87.61c47.77,0,86.7,38.43,87.57,85.99h16.22
				C206.76,45.71,160.55,0,103.84,0C46.58,0,0,46.58,0,103.84c0,56.71,45.71,102.92,102.22,103.8v-16.23
				C54.66,190.54,16.23,151.61,16.23,103.84z"/>
			<path class="st1" d="M102.22,207.68h1.62c-0.54,0-1.08-0.03-1.62-0.04V207.68z"/>
			<path class="st1" d="M102.22,191.41c0.01,0.01,0.02,0.02,0.03,0.03c49.57,0.89,90.08-39.63,89.2-89.2
				c-0.01-0.01-0.02-0.02-0.03-0.03h-86.9c-1.27,0-2.3,1.03-2.3,2.3V191.41z"/>
			<path class="st1" d="M207.64,102.22c0.01,0.54,0.04,1.08,0.04,1.62v-1.62H207.64z"/>
			<path class="st0" d="M103.84,207.68h101.54c1.27,0,2.3-1.03,2.3-2.3V103.84C207.68,161.1,161.1,207.68,103.84,207.68z"/>
		</g>
	</g>
</g>
</svg>
