<?xml version="1.0" encoding="utf-8"?>
<!-- Generator: Adobe Illustrator 27.1.1, SVG Export Plug-In . SVG Version: 6.00 Build 0)  -->
<svg version="1.1" id="Logo" xmlns="http://www.w3.org/2000/svg" xmlns:xlink="http://www.w3.org/1999/xlink" x="0px" y="0px"
	 viewBox="0 0 744.6 209.86" style="enable-background:new 0 0 744.6 209.86;" xml:space="preserve">
<style type="text/css">
	.st0{fill:#FFFFFF;}
	.st1{fill:#FFFF00;}
	.st2{fill:#FFFF0A;}
</style>
<g>
	<g>
		<g>
			<path class="st0" d="M16.23,103.84c0-48.31,39.3-87.61,87.61-87.61c47.77,0,86.7,38.43,87.57,85.99h16.22
				C206.76,45.71,160.55,0,103.84,0C46.58,0,0,46.58,0,103.84c0,56.71,45.71,102.92,102.22,103.8v-16.23
				C54.66,190.54,16.23,151.61,16.23,103.84z"/>
			<path class="st1" d="M102.22,207.68h1.62c-0.54,0-1.08-0.03-1.62-0.04V207.68z"/>
			<path class="st1" d="M102.22,191.41c0.01,0.01,0.02,0.02,0.03,0.03c49.57,0.89,90.08-39.63,89.2-89.2
				c-0.01-0.01-0.02-0.02-0.03-0.03h-86.9c-1.27,0-2.3,1.03-2.3,2.3V191.41z"/>
			<path class="st1" d="M207.64,102.22c0.01,0.54,0.04,1.08,0.04,1.62v-1.62H207.64z"/>
			<path class="st0" d="M103.84,207.68h101.54c1.27,0,2.3-1.03,2.3-2.3V103.84C207.68,161.1,161.1,207.68,103.84,207.68z"/>
		</g>
		<g>
			<path class="st0" d="M415.61,134.79c-4.34,0-8.49,0.54-12.44,1.63c-3.95,1.09-7.44,2.75-10.46,5c-3.02,2.25-5.46,5.04-7.32,8.37
				c-1.86,3.33-2.79,7.25-2.79,11.74v45.79H360.3v-98.78h19.52c0.31,5.58,0.66,10.11,1.04,13.6c0.39,3.49,0.73,7.4,1.05,11.74
				c2.01-4.34,4.72-8.21,8.14-11.62c3.4-3.41,6.93-6.31,10.57-8.72c3.64-2.4,7.24-4.26,10.81-5.58c3.56-1.31,6.58-1.98,9.06-1.98
				L415.61,134.79z"/>
			<path class="st0" d="M432.34,108.53h19.52c0.31,5.58,0.66,10.11,1.04,13.6c0.39,3.49,0.73,7.4,1.05,11.74
				c3.56-8.37,8.6-15.11,15.1-20.22c6.51-5.11,14.64-7.67,24.41-7.67c10.07,0,18.09,2.75,24.05,8.25c5.97,5.5,9.1,12.67,9.42,21.5
				v71.58h-22.08v-61.12c-0.31-4.8-2.01-8.95-5.11-12.44c-3.1-3.49-7.9-5.38-14.4-5.69c-4.5,0-8.64,0.81-12.44,2.44
				c-3.8,1.63-7.05,3.84-9.76,6.62c-2.72,2.79-4.8,6.12-6.28,9.99c-1.48,3.88-2.21,8.06-2.21,12.55v47.64h-22.31V108.53z"/>
			<path class="st0" d="M557.24,65.3h22.08v43.23h25.8v19.99h-25.8v78.79h-22.08v-78.79h-16.74v-19.99h16.74V65.3z"/>
			<path class="st0" d="M702.33,195.91c-4.8,4.34-10.61,7.75-17.43,10.23c-6.82,2.48-13.79,3.72-20.92,3.72
				c-7.29,0-14.14-1.36-20.57-4.07c-6.43-2.71-12.01-6.43-16.73-11.16c-4.73-4.72-8.48-10.23-11.27-16.5
				c-2.79-6.28-4.18-12.98-4.18-20.11c0-7.12,1.39-13.83,4.18-20.1c2.79-6.27,6.54-11.77,11.27-16.5
				c4.72-4.72,10.22-8.44,16.5-11.16c6.28-2.71,12.9-4.07,19.87-4.07c11.16,0,20.95,3.37,29.4,10.11
				c8.44,6.74,14.44,15.61,18.01,26.61c-4.65,1.71-10.04,3.76-16.15,6.16c-6.12,2.4-12.52,4.92-19.18,7.55
				c-6.67,2.64-13.33,5.31-19.99,8.02c-6.67,2.71-12.78,5.15-18.36,7.32c2.63,4.8,6.28,8.68,10.92,11.62
				c4.65,2.94,9.91,4.42,15.8,4.42c4.02,0,8.1-0.73,12.2-2.21c4.1-1.47,7.47-3.45,10.11-5.93L702.33,195.91z M682.82,137.81
				c-1.86-3.41-4.65-5.93-8.37-7.55c-3.72-1.63-7.36-2.44-10.92-2.44c-4.18,0-8.13,0.81-11.86,2.44c-3.71,1.63-6.89,3.8-9.53,6.51
				c-2.64,2.71-4.73,5.81-6.28,9.3c-1.55,3.49-2.32,7.09-2.32,10.81v0.93c3.87-1.55,8.02-3.22,12.44-5
				c4.41-1.78,8.83-3.6,13.25-5.46c4.41-1.86,8.63-3.6,12.66-5.23C675.92,140.48,679.56,139.05,682.82,137.81z"/>
			<path class="st0" d="M744.6,207.3h-22.08V25.79h22.08V207.3z"/>
			<path class="st0" d="M284.89,105.97c-28.69,0-51.95,23.26-51.95,51.95c0,28.69,23.26,51.95,51.95,51.95
				c6.52,0,12.73-1.25,18.48-3.45v-25.35c-5.07,4.05-11.49,6.49-18.48,6.49c-16.37,0-29.63-13.27-29.63-29.63
				c0-16.37,13.27-29.63,29.63-29.63c16.37,0,29.63,13.27,29.63,29.63v42.63v6.76h22.31v-49.39
				C336.84,129.23,313.58,105.97,284.89,105.97z"/>
		</g>
	</g>
	<rect x="324.03" y="172.02" class="st2" width="4.23" height="0"/>
</g>
</svg>
